<svg version="1" xmlns="http://www.w3.org/2000/svg" width="934.667" height="953.333" viewBox="0 0 701.000000 715.000000"><g><path d="M142.5 1.1c-20.3 2.1-39.3 7.6-58 16.8C50.1 34.8 31.1 53.8 15 87.2c-6.7 14-9.1 21-12.2 35.3-1.9 8.7-2.2 13-2.2 33 0 29.3 2.1 45.8 8.1 65 6.5 20.7 22.8 46.1 41.8 65 16.9 17 35.6 26.5 60.5 31.1 5.2 1 10.1 2.2 10.8 2.7.8.6 1.2 3.7 1.2 9.1 0 9.3-1.6 13.6-7.5 20.6-4.7 5.5-6 8.8-6.9 16.4-.9 7.8-3.2 11.3-11.4 17.1C86.8 389.9 82 398.2 82 409c0 9 5.5 11.3 15.2 6.4 5.5-2.8 10.3-3.2 20.9-1.9 7.8.9 11.1-.4 15.5-6.2 3.9-5.2 6.3-7 10.5-8.1l3.6-.9-.5 25.2c-.8 40.8 2.4 60.8 14 88.5 14.1 33.3 37.6 61.7 75.9 91.5 5.1 4 2.9 1.3-10.8-13-28.5-30-38.5-43-49.3-64.5-7.7-15.4-14-35.9-17.7-57.5-1.5-9.2-1.8-15.9-1.6-41.2.1-19 .5-30.9 1.2-32.1.7-1.3 2.6-2.3 5.3-2.7 8.1-1.4 19.3-5.5 27.2-10 4.4-2.5 8.3-4.2 8.6-3.8 1.6 1.8 5 28.5 5 38.5 0 12.9.8 15.4 5.2 16.6 4.1 1 5.3 4.1 6.8 18.3.6 5.7 1.5 12 2.1 14.1.9 3.6 1 3.6 7.2 4.3 8.7 1 10.3 2.3 11.2 8.7 1 7.3 3.4 9.8 9.6 9.8 2.6 0 5 .4 5.3.9.6.9-1.9 6.2-5.2 10.8-3.3 4.7-3.7 9.7-1.3 19.3 1.7 6.5 2 10 1.5 15.1-.6 5.9-.3 7.4 1.9 12.3 2.9 6.3 6.5 9 13.3 10 7.1.9 8.4 2 8.4 7.1s1.6 6.5 7.4 6.5c4.4 0 11.3 2.6 12 4.7.8 1.9-.8 4.8-5.6 10.3-5.8 6.6-7.2 10.5-5.7 15.4 2 6 10 13.9 23.7 23.4 13.1 9.1 16.2 12.1 16.2 15.6 0 2.8-5.2 7.7-11.3 10.6-6.9 3.2-9.7 10.2-6.6 16.3 2 3.7 7.8 10.5 11.1 12.8l3.1 2.3-2.7-4.5c-4.8-7.8-5.9-10.6-5.2-13.2.8-3.4 3.2-5.7 6-5.7 4.5 0 13-5.3 15.3-9.5 3.4-6.1 2.9-9.8-2.7-21.3-2.7-5.6-4.7-10.2-4.3-10.2.3 0 2.9 2 5.8 4.4 3.5 3 6.5 6.9 9 11.7 2.2 4.2 6.1 9.5 9.5 12.8l5.7 5.7-5.8 8.8c-9.8 14.8-9.7 22.8.5 32.4 3 2.9 5.7 5.2 5.9 5.2.3 0-1.1-3.1-3-6.9-3.9-7.5-3.9-9.8-.2-14.5 1.1-1.4 3.3-3.3 4.9-4.1l2.7-1.4-.4 4.3c-.7 6 1.4 9.5 12.1 20.1 12.7 12.7 20.9 17 30.6 16.3l4.5-.3-5.7-2.7c-4.5-2.1-6.1-3.5-7.8-6.8-1.2-2.3-1.9-4.4-1.6-4.7.2-.3 2 .7 3.8 2.1 7.7 5.8 18.5 9 37.8 11l5.5.6-7.7-4.1c-4.2-2.2-8.4-5.2-9.3-6.6-1.8-2.7-3.7-8.3-2.8-8.3.3 0 4.3 2.4 8.8 5.4 10.1 6.6 15.4 8.5 25.4 9.3 8.6.6 16.5-.6 23.1-3.6l4.5-2-7.5.5c-4.1.3-9.2.2-11.3-.3l-3.8-.8 6.3-4.2c7.7-5.1 17.8-14.9 22.4-21.7 1.9-2.8 3.4-5.4 3.4-5.8 0-.4-2.1.9-4.8 2.9-4.4 3.4-17 9.8-17.8 9.1-.1-.2 1.3-2.3 3.2-4.7 1.8-2.4 3.4-4.7 3.4-5.2 0-.4.3-1.4.6-2.3.5-1.4.2-1.4-2.6-.5-5.2 1.9-13.3.6-18.1-2.7-5.4-3.7-12.6-12.8-14.1-17.6-1.4-4.7-.9-5.3 10.4-12.9 13.9-9.4 17.1-14.1 17.2-24.9 0-5.5-.6-7.8-4.2-15.6-2.3-5-4.2-9.7-4.2-10.5 0-1.6 5.1-10.4 7.9-13.6 2.2-2.6 13.1-5.3 21-5.3 8.4 0 15.4-1.8 17.8-4.5 2.5-2.9 5.3-11.8 5.3-17 0-4.7-3.7-17.1-5.8-19.1-.8-.9-3.9-3.3-6.8-5.5l-5.2-3.8 1.9-5c1-2.8 2.6-7.9 3.5-11.4l1.6-6.4 5.6-.2c8.4-.2 18.4-4.5 25.1-10.7 5.3-4.9 5.5-5.2 5.9-11.2.4-5.5.2-6.6-2.2-9.6-1.4-1.9-4.6-4.9-7.1-6.7-2.4-1.7-5.6-4.9-6.9-7l-2.5-3.8 6.7-4.7c3.7-2.7 10.8-8.9 15.9-13.9 8.6-8.5 9.2-9.4 11.3-16.4 2-6.4 2.2-8.8 1.7-18-.9-15-3.5-23-9-27.5-6.9-5.6-10-6.6-16.1-5-2.8.8-7.8 1.7-11.1 2-5.6.6-6.3.4-9.3-2.1-3.6-3-4.9-6.8-6.2-18.4-.5-4.3-1.8-10.3-2.9-13.5-1.4-4.1-1.6-5.6-.7-5.6.7 0 6.8 3.6 13.5 8 15.4 10.1 20.4 12.6 28.5 14.5 3.5.8 10.4 3.4 15.2 5.7l8.8 4.3 17 .4c11 .2 18.8-.1 22.3-.9 8.8-1.9 15.3-9.1 15.3-16.8 0-4.3-2.8-6.2-8.8-6.2-5.2 0-7.1-1-9.4-5.3-1.2-2.2-3.9-14.9-3.3-15.5.1-.2 5.3-1.6 11.4-3.2 31.7-8.3 51.4-24.6 72.7-60 17-28.2 22.5-51.4 21.1-88.5-1.6-40.8-9.8-67.6-28.3-92.6-21.3-28.8-44.4-45.1-78-54.8-18.9-5.5-52.6-6.9-71.7-3-13.5 2.7-20.4 5.8-37.2 16.4-14 8.9-21.6 12.5-25.8 12.5-2-.1-5.7-1.3-10.9-3.5-2.3-.9-2.3 1.3 0 8 2.6 7.4 6.8 12.1 14.2 15.8l6.5 3.2h21c17.7-.1 22.7-.4 32-2.3 19.6-4 32.8-2.5 51.1 5.8 21 9.5 39.5 31.1 47.2 55 3.2 9.8 4.2 17.2 4.2 29.9 0 22.6-4.8 38.6-14.7 49.2-9.5 10.1-17.9 11.8-29.7 6-10.5-5.2-18.9-13.9-38.4-40.1-33.2-44.6-44.5-56.2-63.7-65.6C462.4 90 453.9 88 438 88c-14.7 0-19.7 1.2-31.6 7.5-9.4 4.9-16.9 10.3-26.1 18.6-3.6 3.2-6.9 5.9-7.5 5.9-1.2 0-4.4-2.1-18.3-12.5C333.3 91.6 319.9 87 295.6 87c-31 0-50.2 7.7-71.1 28.5-4.9 4.9-20.2 21.6-33.9 37-37.6 42.3-44.6 48.9-56.9 54.5-13 5.9-28.4-.7-39.2-17-7.9-11.9-8.8-15.7-8.9-37-.1-19.4.1-20.7 5.4-34 3.5-8.9 12.8-25.3 18-31.7 15.3-18.9 50.6-34.5 78.5-34.6 7.2-.1 13.9.7 24 2.7 11.1 2.3 16.7 2.8 27 2.8 32.4 0 46.9-8 49.2-27l.6-5.1-5.9 2.4c-4 1.7-7.9 2.5-11.9 2.5-7.2 0-12.1-2.1-31.3-13.8C225 8.6 218.5 5.7 208.1 3.5 192.9.4 160.8-.8 142.5 1.1zM202 9c10.7 1.9 20.7 5.7 31.9 12.3 5.8 3.3 14.4 8.2 19.1 10.6 8 4.3 8.9 4.5 16.5 4.5 4.5 0 9-.5 10.3-1.2 5.6-3.2-1.3 6.8-7.2 10.3-8.6 5-13.7 6-31.6 5.9-13.4 0-18.4-.5-26.5-2.3-20-4.5-37.8-3.8-60 2.5-17.9 5-36.7 16.4-47.6 28.9-10.5 11.9-22.8 35.8-26.3 51.3-2.1 9.4-2.2 35.4-.1 43.5 2.6 10.1 8.2 19.6 15.9 27.3 9.6 9.6 16.2 12.7 26.7 12.6 8.8-.2 13.5-1.6 21.6-6.3 9.1-5.5 15.2-11.7 47.3-48.4 34-38.9 43.6-48.8 54.2-55.8 13.6-8.9 25-11.8 47.8-12 13.4-.1 16.6.2 23.8 2.2 16.2 4.6 30.3 13.3 45.4 28.2l7.8 7.7 5.9-.5c8-.8 10-.1 16 5.3 7.2 6.5 9.1 10.6 9.1 19.8 0 9.2 1.1 11.7 6.1 14.5 2.1 1.2 4.5 3.1 5.3 4.2 1.2 1.8 1.4 1.8 2 .3.4-1.1-.7-2.8-3.6-5.5l-4.3-3.9v-10.8c0-9-.4-11.3-2.2-14.7-2.6-4.9-8.1-10.2-14.8-14.5-4.2-2.6-4.5-3-2-2.4 11.8 2.7 33.1 15.4 40.1 24.1 4.5 5.5 7.2 13.9 6.1 18.5-1.2 4.8-7 11.8-14.3 17.3-12.2 9.2-13.6 16.5-4.5 23.1 2.7 1.9 5.1 4.3 5.4 5.5.9 3.2-1.3 7.8-4.4 9.4-4.2 2.2-5.6 1.8-3.1-.8 1.4-1.5 2.2-3.6 2.2-5.8 0-6.4-8.2-12.8-22.5-17.4-15.2-5-22.4-10.9-24.9-20.8-3.3-12.4-3.7-27.3-1-37.2.4-1.5-.1-1.3-2 .9l-2.5 3-9.6-9c-16.7-15.5-24.9-20.2-39.8-22.5-16.8-2.6-35.6.5-52.2 8.8-18.6 9.3-32.1 20.8-52.8 44.8-31.4 36.4-39.9 43.9-64.2 57-6 3.2-11.3 7.1-16 11.6l-7 6.8-5.5-6.5c-5.2-6.1-5.7-6.5-9-6-1.9.3-6 .8-9.1 1.1l-5.6.6-1.3-7.3c-2-11.6-1.9-11.4-10.6-13.4l-7.7-1.8.6-7.2c.4-3.9.9-9.6 1.3-12.6l.6-5.4-5.6-3.4c-3.1-1.9-5.6-3.8-5.6-4.4 0-.5 1.9-4.1 4.1-8l4.1-7.1-4.5-8.5-4.6-8.5 6-9.6 5.9-9.7-2.2-9.2-2.3-9.3 4.5-3.6c9.5-7.8 8.9-6.8 10-17 .5-5.2 1.4-9.8 2.1-10.2.7-.4 4.9-2 9.5-3.5l8.3-2.8 3.7-8.8 3.8-8.8h21.4l4.9-6.1 5-6 15-.3 14.9-.3 4.9-3.3c5.4-3.7 3.8-3.9 14.2 2.1l4.2 2.4 7.8-3.8 7.8-3.8 14.4 5c7.9 2.8 14.6 4.9 14.8 4.7.2-.2-3.8-3.7-9-7.8l-9.4-7.5-8.9-1.2c-4.9-.6-13.3-2.1-18.7-3.3l-9.8-2.2-11.1 3.3-11 3.2-9.8-2.2-9.7-2.2-9.5 5.1-9.4 5.1-10-.5-9.9-.6-4.5 7.8c-5.1 8.7-4 8.1-19.2 9.9l-5.7.6-5.2 8.8c-4.8 8.3-5.6 9-11.5 11.9-3.5 1.8-6.4 3.6-6.4 4.2 0 .6-.7 5.6-1.5 11.3L50 93.5l-5.6 5.1-5.5 5.1 2.5 9.9 2.5 9.9-5.1 6c-2.9 3.3-5.8 6.8-6.6 7.7-1.2 1.5-.7 2.6 4.7 9.7l6.1 7.9-6.5 5.2-6.5 5.2 6.7 5.5c11.1 9 11 7.3 1.3 16.2l-8.5 7.9 9 2.7c5 1.4 9.6 2.8 10.3 3.1.9.2-.8 3.2-5.2 8.9-3.6 4.6-6.2 8.6-5.8 8.9.4.2 3.5.8 6.9 1.1 3.3.4 6.6 1.1 7.2 1.5.8.5-.4 3.4-3.9 9.4-2.7 4.8-5 8.9-5 9.1 0 .3 4.1.6 9 .7l9 .3-4.6 6.9-4.6 6.9 5.8-.7c3.3-.4 7.8-.9 10.2-1.3 2.6-.3 4.2-.1 4.2.5s-.9 4.8-2 9.4c-1.1 4.6-2 8.7-2 9.1 0 .5 3.4-1.9 7.5-5.3 4.9-4 7.7-5.7 7.9-4.8.3.7 1.4 6 2.7 11.8 1.2 5.8 2.3 10.6 2.4 10.8.2.2 2.5-3.3 5.1-7.7 2.7-4.5 5.1-8.1 5.4-8.1.3 0 1.4 3 2.4 6.7.9 3.8 2.2 8.5 2.7 10.6l1 3.8 6.2-7.7 6.2-7.8.5 10.9.5 10.8 6.4-9.1c3.5-5.1 6.6-9.1 6.8-8.9.2.2-1.3 7.9-3.4 17.1-3.2 14.3-4 16.6-5.6 16.6-3.6 0-21.3-4-28.2-6.3-17.8-6.1-29.8-14-44.1-29-22.4-23.5-36-50-41.7-81.2-1.9-10.3-2.2-15.6-2.2-38 0-25.2.1-26.3 2.8-36.6C19.4 81 42.1 50.7 77 29.4c20.6-12.5 36.7-18 63.5-21.8 6-.8 55.2.2 61.5 1.4zm378.3 4c19.6 3.3 34.6 9.1 48.4 18.7 11.8 8.2 32.4 29.2 40.4 41.2 18.6 27.8 24.2 48.6 24.2 88.6-.1 34.5-2.8 47.8-14.4 70.5-20.4 40.1-44.2 61.6-74.7 67.6-4.2.8-8.7 1.7-9.8 1.9-1.8.4-2.6-.5-4.7-5.3-2.1-4.7-7.3-27-6.4-27.8.1-.1 2.9 4 6.1 9.2 3.2 5.2 6.1 9.4 6.4 9.4.3 0 .2-4.7-.2-10.5s-.4-10.5-.2-10.5c.3 0 2.7 2.8 5.3 6.3 2.6 3.5 5.2 6.4 5.8 6.6.5.1 1.5-2.4 2.2-5.6.8-3.2 1.8-7.6 2.4-9.8l1.1-3.9 4.6 8.4 4.6 8.5 2.3-11.4c1.3-6.3 2.4-11.6 2.6-11.7.1-.2 3 2.1 6.4 5.1 3.4 3 6.3 5.5 6.6 5.5.2 0-.5-4-1.6-9-1.1-4.9-1.8-9.2-1.6-9.4.2-.2 3.5.1 7.2.6 10.1 1.4 10.3 1.2 6.3-5.2-2-3-3.6-5.8-3.6-6.3 0-.4 3.4-.7 7.5-.7s7.5-.3 7.5-.8c0-.4-2-4.4-4.4-8.9-2.8-5.4-3.9-8.4-3.1-8.7.7-.2 3.8-.7 6.9-1.1 6.7-.9 6.7-.8.1-9.9-2.5-3.5-4.5-6.8-4.5-7.4 0-.5 3.6-2 8-3.3 4.4-1.2 8-2.7 8-3.2s-3.1-4.1-6.9-8.1l-7-7.1 7-5.9c3.8-3.3 6.9-6.3 6.9-6.7 0-.4-2.2-2.7-5-5-2.7-2.3-5-4.6-5-5.1s2.2-4.1 5-8c3-4.3 4.7-7.5 4.2-8.2-.5-.6-3-3.7-5.5-6.9-2.6-3.3-4.7-6.6-4.7-7.5.1-1 .9-5.3 2-9.7l1.9-8-4.9-5-4.9-5-1.3-10.5-1.3-10.4-5.6-3.3c-4.8-2.9-6.2-4.4-10.2-11.7l-4.7-8.4-6.7-.7c-10.7-1-10.5-1-14.8-9.1l-4-7.6-8.6.7-8.6.6-8.3-4.9-8.4-4.9-7 1.8c-9.4 2.5-10.8 2.4-20.9-1l-8.6-2.9L529 24c-4 1-10.4 2.4-14.4 3-3.9.6-8.1 1.3-9.3 1.6-1.9.4-20.4 15.4-19 15.4.3 0 6.4-2.3 13.7-5l13.1-5.1 6.8 3.7 6.7 3.7 5.9-3.7 5.8-3.8 4.6 3.3c4.6 3.2 4.7 3.2 17.5 3.4l12.9.2 4.1 5.6 4.1 5.6 9.5.3 9.5.3 3.3 8.1 3.4 8.2 8.3 3.2 8.2 3.2.7 6c.3 3.4.6 7.5.6 9.3 0 2.7.9 4 5.9 8.1 3.3 2.7 6 5.6 6 6.4 0 .8-.8 4.9-1.8 9.1l-1.8 7.7 4.9 8.6c2.6 4.7 4.8 9.2 4.8 10.1 0 .8-1.6 4.8-3.6 8.8l-3.7 7.4 3.7 6.5c2 3.6 3.6 6.9 3.6 7.4s-2.3 2.5-5.1 4.3c-3.9 2.7-4.9 4-4.5 5.5.2 1.2.8 6.5 1.1 11.8.6 7.8.5 9.9-.6 10.2-.8.3-3.9 1.2-7 2-5.4 1.5-5.7 1.8-6.4 5.3-.3 2.1-1.1 6-1.7 8.7l-1 4.8-7.8-.6-7.8-.7-4.4 5.5c-2.3 3-4.7 5.5-5.1 5.5-.4.1-3.2-2.5-6.1-5.7-4.2-4.5-7.6-6.8-15.8-10.9-15.7-7.8-28.7-20.8-52.3-52.2-17.9-23.9-27.9-33.2-47-43.9-15.3-8.5-29.1-11.7-40.6-9.3-6 1.2-19.9 6.2-19.9 7.2 0 .3 3.6 2.9 7.9 5.7 9.8 6.4 21.1 17.2 24.1 23.2 1.8 3.4 2.4 6.2 2.4 11.5.1 7.6-1.2 10.9-6.5 17l-3.1 3.5h9.5c5.2 0 10.8.3 12.5.6 3.3.7 3.1.3 7.3 19.4 1 4.8 2 6.3 8.1 12.3 8.2 8.1 10.6 12.8 11.4 22.9.8 8.6-.3 12.7-4.6 18.7l-3 4.1-8.3-.1c-6.5 0-10.1.5-15.9 2.5-4.1 1.4-7.8 2.6-8.3 2.6-.4 0-.5-2.6-.2-5.7.5-4.4 1.1-6.1 3.1-7.7 1.4-1.2 3.3-4.1 4.1-6.6 1.9-5.4 2.7-6 9.1-6 3.6 0 5.9.6 7.7 2 3.3 2.6 4.1 2.5 2.2-.3-2.1-3.3-5.7-4.7-11.5-4.7-2.8 0-5-.5-5-1 0-2.1 2.9-6.6 6.4-9.9 5.2-5 4.9-9.9-.8-12-3.4-1.4-9.1 0-12.9 2.9-3.4 2.7-8.3 12.6-9.8 19.8-1.4 7.1-.7 27.9 1.3 34.2.8 2.5 5.4 9.9 10.3 16.5 15.6 21.1 23.4 33.6 32.1 51.3 7.6 15.6 9.2 18.1 15.3 24.1 4.3 4.4 8.4 7.4 11.4 8.6 4.3 1.6 5 1.6 11.4.1 11.3-2.8 11.6-2.8 16.2-.4 7.2 3.7 8.6 7.6 8.6 23.3 0 11.7-.3 13.5-2.5 18-1.3 2.7-5.7 8.2-9.6 12.2-10.9 10.9-23.2 18.4-41.9 25.4l-10 3.8h5c4.5.1 13.4-1 20.7-2.5 2.2-.4 3.1.1 5.8 4 1.7 2.5 5.5 6.1 8.4 8 8.7 5.5 9.7 12.5 2.6 17.4-5.5 3.7-10.3 4.3-33.4 4.6-21.3.2-22.5.3-34.6 3.4-24.4 6.3-35.1 7.3-51.1 4.6-12.2-2-18.7-5-25.4-11.8-5.9-5.9-18.5-24.6-28.6-42.5-3.5-6.3-8.2-13.4-10.5-15.9-3.9-4.4-4.3-4.6-10.5-4.9l-6.4-.3 4.7 1.6c2.5.9 6 3.1 7.7 4.8 1.8 1.8 7.8 12.3 13.5 23.4l10.3 20 .6 12.4c1.2 21.4 4.2 33.7 12.3 49.8 4.4 8.9 7.7 11.8 15 13.2 9.5 1.7 19.5-.7 37.9-9.2 16.6-7.7 34.6-13 43.9-13 5.8 0 15.8 2.6 26.1 6.7 5.3 2.2 7.1 3.4 7.6 5.3 2.3 8.1-.6 26.1-4.4 28.2-1.3.6-5.8.9-12.1.5-19.2-.9-56.1 3.1-82.1 8.9-16.9 3.8-23.6 4.1-32.5 1.4-13.4-4-22-11.2-25.9-21.4-4.5-12.1-5-26.1-1.7-48.1 3-19.6 3.9-30.7 3.2-40.3-.7-10-2.8-22.7-3.9-23.9-1.3-1.3-1.4.3-.5 7.7 1.3 9.6.3 40.9-1.7 57-5.2 41.9-5.3 46.5-1 55.8 2.9 6.3 9.6 13.6 15 16.5 3.7 2 5.5 2.2 23.5 2.3 25.4.1 23.8-.1 30 3.9 6.9 4.4 9.8 4.4 18.6 0 4.6-2.3 8.2-3.5 10.9-3.4 5.2.1 12.1 2.2 11.8 3.7-.2.6-.4 3.5-.5 6.5-.2 4.9.2 6.1 4.2 12.1 3.5 5.4 4.4 7.9 4.8 12.4.6 7-1 9.9-9.2 17.1l-6.1 5.3-.3-2.8c-.6-5.7-1.2-5.8-4.3-1-3.4 5-12.9 12.6-11.5 9 4.8-11.6 5.7-19.1 3.4-26.9l-1.2-4-.6 6.5c-1.2 12.3-7.3 19.7-23.2 28-20.2 10.6-24.6 18.5-17.8 32 1.7 3.3 2.6 6 2 6-.6 0-3.5-2.4-6.4-5.3-6.5-6.3-8.6-12.1-8.6-23.9v-7.7l-5.3-2.5c-6.9-3.3-15.5-9.8-18.9-14.2-3.4-4.5-5.3-13-4-17.7.6-1.9 2.1-5.2 3.6-7.3 1.4-2.1 2.4-4 2.2-4.2-.2-.2-1.9.4-3.6 1.3-4.5 2.3-11.5 2.3-14.1-.1-1.9-1.7-2-2.5-1.4-12.9l.7-11-4.9 5.2c-2.6 2.9-7 6.3-9.8 7.6-9.7 4.8-11.2 8.6-9.1 23l.8 5.8-4.5-3.1c-6.1-4.1-10.7-9.5-10.7-12.6 0-1.3 1.4-5.2 3.1-8.6 4-7.9 4.9-16 2.4-20.9-5.3-10.1-11.1-14.6-21.8-16.6-9.4-1.7-16.7-5.2-18.9-9.1-2.2-3.9-3.8-16.3-3.4-26.2.3-8.8 1.3-11.3 8.2-20.9 2.6-3.7 3-6.7 1.3-10.4-.8-1.8-2.4-2.6-7.2-3.6-9.9-2-10.4-2.3-10.9-7.6-.7-6-5.2-11.9-9.4-12.3-8.3-.7-9.5-1.3-11-4.7-.9-2.1-1.4-7-1.4-12.7 0-12.1-.5-13.5-5.1-15.8-5.5-2.9-6.1-4.5-5.3-16.2.5-7.9.3-11.7-1-16.4-1-3.8-1.6-10.2-1.6-16.7v-10.4l8.9-7.6c9.1-7.7 14.1-13.6 22.7-26.6 4-6 5-7 5.6-5.5.4 1.1 2.1 5.6 3.8 10.1 2.9 7.7 7 14.7 13.3 22.4 2.2 2.8 1.8 1.4-2.3-7.3-8.4-17.6-9.8-29.9-6-52.3 1.2-6.6 2.3-18.1 2.5-25.5.5-14.4 0-14-3 2.5-6.5 35.5-26.8 67-55.9 86.9-12.9 8.8-23.3 13.2-42.6 17.7-15.2 3.7-21 6.2-27.8 12.2-8 7.1-10.7 8.2-16.3 6.8-5.6-1.5-10.2-.5-19.3 4.1l-5.9 3 .5-5.2c.5-4.5 1.1-5.8 5.4-10.1 2.7-2.8 7.4-6.6 10.5-8.5 6.2-3.7 7-5.1 9.4-15.8 2-9 4.5-14.2 9-19.1 5-5.4 5.5-7.1 5.5-18.8 0-11.2 2.1-20.1 9.5-40.7 15.2-42.4 30.8-66.9 51-80.2 19.6-12.9 30.4-17.6 44.5-19 6.1-.6 15.4-2.5 22.2-4.5 23.1-6.7 31.4-7.6 45.4-4.7 10.8 2.3 21.2.7 32.5-4.7 8.4-4.1 15.7-6.4 22.5-7.2l4.1-.5 1.7 6.1c1.7 5.9 4.4 10.9 7.6 13.5 4.9 4.2 12.6 8.3 19.1 10.3 15.1 4.5 21.9 8.7 21.9 13.4 0 3-3 5.5-7.5 6.2-3.8.6-3.8.6-1.7 2.4 5 4 15.8 3.1 20.4-1.8 1.6-1.7 2.3-3.9 2.6-8.1l.4-5.9-5.1-3.6c-5.4-3.9-7-7.2-5.2-10.6.6-1.1 4.8-5.1 9.4-8.9 17.1-14.3 20-20.2 16.2-33-3.6-11.9-26.4-29.8-45.7-35.8l-5.7-1.7 7.5-5.9c9.2-7.2 18.2-12.2 25.4-13.9 8.2-1.9 26.8-1.4 36.5 1 16.6 4.3 31.2 14 45.5 30.3 4.5 5.1 16.7 20.5 27 34.3 31.5 41.8 45.6 53.9 60.8 52.1 15.7-1.9 26.9-13.6 33.3-35.1 2.7-8.9 3.6-30.3 2-43-2.2-16.4-8.9-33.7-17.8-46.2C601.6 75 584 61.2 570 55.6c-15.8-6.3-31.3-7.4-51.5-3.6-7 1.4-17.2 2.3-28.1 2.7-14.6.5-17.8.3-22.4-1.2-5.1-1.7-12.1-7-14-10.5-.8-1.5-.3-1.7 4.3-1.7 6.7-.1 10.6-1.9 30-13.6 16.9-10.3 28.1-14.8 41.5-16.7 9.8-1.3 37.4-.3 50.5 2zm-90.8 174.6c14.6 3 26 9.5 35.9 20.2 5.4 5.9 20.2 26.5 23.1 32.3 1.3 2.5 3.6 8.8 5.1 14 1.4 5.2 4 12.1 5.6 15.4 4 8 14.8 23.5 21.9 31.5 6.5 7.4 7.4 9.3 8.4 17.6 1.4 11.8 6.8 18.4 15.4 18.4 4.8 0 5 .8 1.6 4.9-4.5 5.3-9.2 6.3-27.1 5.9-15.8-.3-15.9-.4-22.4-3.7-3.5-1.8-10.2-4.4-14.8-5.8-11.6-3.3-18-6.3-27.5-12.9-4.4-3-11.4-7.4-15.3-9.5l-7.3-4-3-9.2-3.1-9.1 3.2-3.3 3.2-3.3h-2.9c-1.7 0-6.1 1.5-10 3.4-3.8 1.9-8.9 3.7-11.2 4.1-3.9.6-4.3.5-5.8-2.4l-1.6-3.1h5.1c9.5 0 13.8-4.6 12.8-13.5-.5-3.9-.3-4.5 1.3-4.5 1 0 3.6 1.8 5.9 4.1 5 5.1 6.6 4.7 6.3-1.5-.4-6.2-2.4-9.9-7-12.7-2.1-1.2-4-2.4-4.2-2.6-.2-.1 1.4-2.2 3.7-4.7 3.4-3.6 4.1-5.3 4.7-10 1-7.4-.2-18-2.5-23.3-1-2.3-4.8-7.3-8.4-11.1-7.1-7.7-9.7-13.5-7.7-17.9 1.3-2.8 7-6.5 9.1-5.9.8.3 5.1 1.2 9.5 2.2zm-4 120.6c1.6 5.7 3.9 13.4 5.2 17.2 1.4 4.3 2.3 9.3 2.3 13v6.1l-5.8-11c-3.2-6.1-8.6-15.4-12-20.7-3.4-5.4-6.2-10-6.2-10.3 0-.3 1-.5 2.3-.5 1.2 0 3.8-.8 5.7-1.9 1.9-1 4-1.9 4.6-2 .6 0 2.3 4.5 3.9 10.1zM372.4 482.7c10.2 11 21 15.2 41.6 16 11.5.5 13.6.3 26.5-2.7 16.5-3.7 25.7-4.5 42.6-3.5l12.4.7-3.3 6.7c-1.8 3.7-3.6 8.5-3.9 10.7l-.5 3.9-13.9-.3c-16.6-.4-23.9 1.1-39.9 8.3-22.3 10-27 11.5-37.2 11.5-6.8 0-10.4-.5-13.3-1.9-4.7-2.1-11.2-8.9-12.1-12.8-.4-1.5-1.5-4.1-2.5-5.8-3-5-6.2-20.3-6.8-32.3l-.6-11.3 3 3.8c1.6 2.1 5.2 6.1 7.9 9z"/><path d="M304.3 196.7c-3.5 4.4-8.6 7.3-12.6 7.3-2.5 0-5.1 1.8-5.9 4.2-.3.7-3.1 1.2-7.6 1.4-5 .2-7.9.8-9.5 2-3.6 2.7-10.4 12.5-11.1 16.1-.5 2.2-1.8 3.8-4.2 5.2-2 1.2-4.1 3.6-5 5.8-3.7 8.7-5 10.6-9.8 14-7.8 5.6-7.7 5.8.3 1.8 4.1-2 10-6.1 13-9 3.1-2.9 7.5-6.2 9.9-7.4 3.3-1.7 4.2-2.7 4.2-4.7 0-3.1 4.4-11.9 7.5-15 1.5-1.5 3.6-2.4 5.6-2.4 2.8 0 3.1.3 2.5 2.2-.3 1.3-.6 6-.6 10.5 0 7.4-.3 8.4-2.7 11.4l-2.7 3.2 2.5-.8c17.9-5.2 30.7-24.5 29.7-44.3l-.3-5.6-3.2 4.1zM352.5 207.7c.9 4.7 1.9 6 6.3 7.9 2 .8 4.2 2.3 4.9 3.4 1 1.4 2.6 2 5.4 2h4l5.4 11.2c2.9 6.2 5.8 13.7 6.4 16.5.6 3.2 3.2 8.8 6.6 14.3 6.5 10.4 8.3 12.1 5.6 5.3-1-2.6-2.7-8.4-3.6-12.8-2-9-3.4-12.2-6.5-14.8-2.7-2.3-7.8-13.2-11.5-24.7-3.3-10.1-3.8-10.9-6.3-8.7-2.6 2.3-5.8 2.1-12.1-.8l-5.3-2.5.7 3.7zM300.4 253.6c-1.1 4.3.2 11.2 2.9 15.3 3.3 5 13.2 11.5 21.6 14.2 5.3 1.8 9.8 2.3 22.6 2.6 15 .4 20.2-.3 18.2-2.3-.4-.4-8.3-1.1-17.5-1.5-17.2-.7-19.8-1.1-27-4.8-8-4.1-15-13.6-16.8-22.9-.7-3.8-3.1-4.2-4-.6zM387.8 346.1c-6.1 1.4-16.1 6.4-19.2 9.5-4.3 4.4-6.7 9.9-7.3 17.2-.7 8.9 2.2 16.8 8.5 23.2 2.6 2.7 4.1 3.7 3.7 2.5-.4-1.1-1-4.2-1.3-7-.5-4.5-.4-4.9 1.1-3.6 2.7 2.2 4.5.6 5.2-4.6.9-6.8 2-9 5.7-11.3 4.1-2.5 8.3-2.5 13.1-.1 2 1 3.7 1.5 3.7 1.1 0-1.7-4.6-6.3-7.6-7.6-7.3-3.1-15.1-1.1-20.2 5.2-1.7 2.1-3.4 3.5-3.8 3.1-1.3-1.2.7-7.4 3.6-11.4 5.4-7.3 17.5-11.1 31.7-9.9 9.7.9 12.3 1.9 22.3 8.6 4.7 3.2 12.1 7.7 16.4 10.1 4.4 2.3 11.6 7.1 16 10.4 12 9.1 15.9 10.9 21.7 9.5l3.4-.7-4.2-.8c-4.8-.8-6.9-2.2-17.9-11.8-4.4-3.8-11.9-9.4-16.9-12.4-4.9-3.1-11.8-7.6-15.3-10.1-7.7-5.5-13.5-7.7-23.6-9.1-8.9-1.3-13.6-1.3-18.8 0z"/><path d="M397.5 383.5c-2.2.8-4.1 1.5-4.2 1.5-.1 0-.7 1.6-1.3 3.5-1.6 4.9-.5 8.9 3.6 12.5 3.7 3.2 9.5 4.1 13.4 2 2.3-1.2 3.4-5.5 2-8-.9-1.7-.8-2 1-2 5.8 0 17.9 10 22.2 18.3 1.2 2.3 3.2 7.1 4.5 10.7l2.3 6.5-.6-7.4c-2.1-26.2-23.2-44.7-42.9-37.6z"/></g></svg>